<svg width="132" height="72" viewBox="0 0 132 72" fill="none" xmlns="http://www.w3.org/2000/svg">
<path d="M4.616 33.84V25.92C6.536 25.92 7.496 25.296 7.496 23.232V0.719999H15.656V23.232C15.656 29.472 11.816 33.84 4.616 33.84Z" fill="white"/>
<path d="M16.856 33.84V23.568C16.856 7.776 26.696 0.719999 40.376 0.719999V33.84H32.216V29.04H25.016V33.84H16.856ZM25.112 21.12H32.216V10.272C27.8 12 25.592 15.792 25.112 21.12Z" fill="white"/>
<path d="M41.7489 33.84V25.92H51.4929C53.5089 25.92 54.4209 24.96 54.4209 23.808C54.4209 22.512 53.3169 21.648 52.1649 21.264C47.8449 19.824 45.8769 19.2 44.2449 17.52C42.4689 15.696 41.6529 13.344 41.6529 10.656C41.6529 5.616 44.5329 1.92 48.9969 1.008C50.3889 0.719999 51.8289 0.719999 54.0369 0.719999H58.5009V8.64H52.3569C50.6289 8.64 49.8129 9.552 49.8129 10.704C49.8129 11.904 50.4849 12.816 51.9729 13.248C55.4769 14.256 57.8769 14.976 59.7009 16.56C61.6689 18.288 62.5809 20.88 62.5809 23.616C62.5809 29.76 58.0209 33.84 52.4529 33.84H41.7489Z" fill="white"/>
<path d="M80.1605 34.56C70.5125 34.56 62.8805 26.88 62.8805 17.232C62.8805 7.632 70.5125 0 80.1605 0C89.8565 0 97.5365 7.632 97.5365 17.232C97.5365 26.88 89.8565 34.56 80.1605 34.56ZM80.2085 26.592C85.2005 26.592 89.3765 22.416 89.3765 17.328C89.3765 12.288 85.2005 7.968 80.2085 7.968C75.1205 7.968 71.0405 12.288 71.0405 17.328C71.0405 22.416 75.1205 26.592 80.2085 26.592Z" fill="white"/>
<path d="M98.5625 33.84V0.719999C105.187 0.719999 110.418 2.832 114.162 6.432V0.719999H122.323V33.84H114.162V23.568C114.162 16.944 111.811 12.48 106.723 10.8V33.84H98.5625Z" fill="white"/>
<path d="M0 71.84V38.72H8.16C12.24 38.72 16.32 40.64 18.624 43.472C20.928 40.64 25.008 38.72 29.088 38.72H37.248V71.84H29.088V46.88H28.992C25.968 47.072 22.368 49.232 22.368 53.84V71.84H14.88V53.84C14.88 49.232 11.28 47.072 8.256 46.88H8.16V71.84H0Z" fill="white"/>
<path d="M38.5279 71.84V61.568C38.5279 45.776 48.3679 38.72 62.0479 38.72V71.84H53.8879V67.04H46.6879V71.84H38.5279ZM46.7839 59.12H53.8879V48.272C49.4719 50 47.2639 53.792 46.7839 59.12Z" fill="white"/>
<path d="M63.4688 71.84V38.72H71.6288V52.064L78.5888 38.72H87.2288L79.2128 54.176L79.4528 54.272C84.6848 56.432 86.7487 61.904 86.7487 67.76V71.84H78.5888V67.76C78.5888 62.96 76.3807 59.84 71.7247 59.84H71.6288V71.84H63.4688Z" fill="white"/>
<path d="M88.1719 71.84V38.72H109.1V46.64H96.3319V51.44H104.972V59.12H96.3319V63.92H109.1V71.84H88.1719Z" fill="white"/>
<path d="M110.343 71.84V63.92H120.087C122.103 63.92 123.015 62.96 123.015 61.808C123.015 60.512 121.911 59.648 120.759 59.264C116.439 57.824 114.471 57.2 112.839 55.52C111.063 53.696 110.247 51.344 110.247 48.656C110.247 43.616 113.127 39.92 117.591 39.008C118.983 38.72 120.423 38.72 122.631 38.72H127.095V46.64H120.951C119.223 46.64 118.407 47.552 118.407 48.704C118.407 49.904 119.079 50.816 120.567 51.248C124.071 52.256 126.471 52.976 128.295 54.56C130.263 56.288 131.175 58.88 131.175 61.616C131.175 67.76 126.615 71.84 121.047 71.84H110.343Z" fill="white"/>
</svg>
