<svg xmlns="http://www.w3.org/2000/svg" width="1536" height="1024" viewBox="0 0 1536 1024"><path fill="#fff" d="M1475 289c3 1 3 1 4 3 .719 31.192-17.631 64.297-38.483 86.388A479 479 0 0 1 1436 383l-2.539 2.578c-8.298 7.964-17.855 14.162-27.461 20.422l-1.856 1.229c-15.095 9.926-32.076 17.103-48.429 24.693-26.87 12.527-54.752 28.062-70.715 54.078l-2.062 3.211c-6.05 9.584-10.852 19.678-15.616 29.946-13.679 29.41-28.019 56.944-50.322 80.843l-2.098 2.406C1199.323 620.276 1180.5 634.26 1160 646l-2.011 1.17c-42.623 24.587-89.981 33.847-137.905 21.012-16.829-4.83-33.136-12.555-47.084-23.182.487-4.195 2.711-5.878 5.812-8.562l2.645-2.317L984 632l1.762-1.777c3.723-2.034 7.1-1.846 11.238-1.223 4.242 1.289 8.288 2.975 12.375 4.688 26.622 10.677 56.068 16.902 84.625 10.312l2.117-.473c11.578-2.631 22.234-6.295 32.883-11.527l2.069-1c16.058-7.833 30.436-17.754 43.181-30.285 1.941-1.902 3.908-3.776 5.875-5.653 9.084-8.766 17.096-17.887 24.474-28.127a248 248 0 0 1 3.827-5.13c22.925-30.747 40.101-66.136 55.136-101.243l.904-2.089c5.197-12.418 7.624-24.94 9.513-38.213 3.267-21.334 12.106-40.912 29.709-54.01 17.909-11.547 37.652-16.877 58.113-21.996 36.593-9.17 71.963-21.666 101.199-46.254q2.744-2.226 5.5-4.438l2.469-1.996C1473 290 1473 290 1475 289"/><path fill="#fff" d="M1113 274c3.229-.359 4.611-.281 7.289 1.652l2.336 2.286c22.655 21.359 47.891 35.949 76.375 48.062 55.278 23.648 55.278 23.648 67.031 49.246.821 2.237 1.429 4.433 1.969 6.754l.652 2.746c7.182 36.846-8.408 82.378-28.464 113.004-4.754 7.054-10.257 13.178-16.188 19.25l-2.203 2.391c-23.43 24.818-61.271 39.423-94.964 40.732-27.643.648-53.185-2.491-78.833-13.123-23.305-9.588-44.1-16.945-69.516-17.571l-2.836-.085-2.494-.057c-8.643-.787-16.205-2.773-24.123-6.287l-2.757-1.188a1348 1348 0 0 1-5.79-2.512c-5.051-2.201-10.122-4.357-15.191-6.515l-3.007-1.282C867.098 488.03 804.172 471.128 744 470l-2.942-.078c-43.139-1.058-87.87 4.344-120.722 34.812C609.062 515.669 600.747 527.98 596 543l-.742 2.285c-3.459 12.675-1.846 26.327 4.426 37.793 2.319 3.731 4.674 7.2 7.597 10.484L609 596c-.393 2.152-.393 2.152-1 4-8.776.786-14.548-1.048-22.25-5.125a2031 2031 0 0 0-6.086-3.047l-2.948-1.486C555.166 579.695 526.89 570.425 503 577l3.988.297c15.514 1.268 26.788 3.099 37.293 15.367 12.406 15.673 16.814 33.374 19.219 52.774 1.723 13.864 3.746 27.382 10.312 39.937l1.045 2.021c6.006 11.272 6.006 11.272 10.143 13.604 5.553-.168 9.829-2.058 14.688-4.5 8.156-4.026 15.554-6.382 24.562-3.438 8.243 5.808 13.294 15.542 16.434 24.997.95 5.831 1.029 11.84-.872 17.441-2.792 3.852-5.237 6.008-9.812 7.438-3.684.076-5.122-.682-8-2.938-3.781-4.004-4.363-9.047-5.461-14.244-.929-4.1-1.473-5.69-4.539-8.756l-14 7c10.483 12.349 20.955 24.253 34 34l2.285 1.73c22.348 16.304 46.343 25.166 74.027 24.332 26.679-.736 26.679-.736 34.688 5.938 1.125 1.875 1.125 1.875 1 4-6.924 8.711-17.336 12.426-28 14-44.307 2.457-82.382-14.953-115.24-43.979-13-11.802-24.979-24.147-35.76-38.021l-1.234-1.556c-14.088-17.848-24.318-38.777-32.969-59.733-11.028-26.71-28.223-46.721-48.883-66.637C480 596 480 596 480 594l-1.703-.695c-2.911-1.654-4.762-3.732-7.047-6.18-19.764-20.334-44.427-30.717-71.688-36.937l-2.518-.591c-18.309-3.895-37.226-3.939-55.856-3.847l-3.372.008c-17.956.053-35.755.643-53.656 2.071-4.059.321-8.119.628-12.18.937l-2.608.198-5.249.399-5.225.398c-13.959 1.065-27.897 1.968-41.898 2.239l-3.354.066c-61.727 1.032-61.727 1.032-80.771-13.441C131 536 131 536 130.312 532.812c2.146-11.897 12.205-20.809 21.674-27.511 28.321-19.201 61.055-30.052 93.936-38.442l4.614-1.181a5944 5944 0 0 1 46.7-11.718q4.656-1.151 9.31-2.311c26.797-6.681 53.607-12.936 80.954-16.961l2.794-.419c29.84-4.468 59.784-8.232 89.716-12.017l9.351-1.188c26.826-3.401 53.64-6.436 80.639-8.064l2.322-.143c15.764-.946 31.515-1.059 47.303-1.045l3.957.003c19.71.031 39.289.332 58.935 1.979 2.759.229 5.518.446 8.277.663 41.649 3.308 82.93 8.971 123.784 17.804q3.491.754 6.989 1.482c56.526 11.77 109.353 30.996 161.527 55.346 54.744 25.531 119.176 54.539 179.875 32.833 24.571-9.168 47.935-26.048 59.534-50.06 4.95-10.88 5.614-20.539 1.372-31.866-5.122-11.16-13.28-20.431-22.875-27.996l-2.859-2.293a234 234 0 0 0-17.391-12.519c-32.022-20.979-58.759-47.327-68.75-85.188l-.746-2.781c-1.325-5.922-1.48-11.861-1.566-17.907l-.054-2.413c.007-5.606 1.137-9.753 3.366-14.899M436.527 520.844c-1.837 2.594-2.888 5.041-3.527 8.156 3.897-1.326 6.262-2.942 9.188-5.812 13.882-12.606 32.894-14.398 50.874-14.25l3.202.013q3.868.018 7.736.049v-2c-23.663-8.256-50.527-6.394-67.473 13.844M463 529v2c4.153 2.014 7.404 2.475 12 2 2.533-1.135 4.663-2.474 7-4-.625-1.938-.625-1.938-2-4-6.311-2.254-11.736.49-17 4"/><path fill="#fff" d="m845 511 2.006 1.082c7.713 4.178 15.216 8.606 22.563 13.398 11.833 7.717 23.883 15.024 36.431 21.52-1.397 3.485-2.679 4.698-6.07 6.254l-2.469 1.15-2.586 1.158-2.516 1.17A350 350 0 0 1 885 560l-2.155.98c-4.729 2.008-7.891 2.357-12.845 1.02-2.639-1.149-5.089-2.532-7.562-4l-2.108-1.215c-4.538-2.643-8.947-5.456-13.33-8.347-6.743-4.439-13.779-8.043-21.063-11.506a246 246 0 0 1-5.335-2.67c-38.244-19.034-89.278-28.434-130.79-14.95-15.993 5.872-27.442 16.222-35.687 31.063-2.622 8.45-3.195 16.604.875 24.625 3.73 6.773 8.577 10.727 16 13 5.974.939 11.191.921 16.5-2.188 7.119-5.339 7.119-5.339 7.875-10.246.23-4.943.23-4.943-.375-7.566-2.091-2.185-3.251-2.964-6.289-3.109l-2.336.359-2.352.328C682 566 682 566 680 567c-3.948.372-6.33.349-9.875-1.5-2.278-2.68-3.153-4.687-3.391-8.215.803-6.908 5.088-12.884 10.266-17.285l2.309-1.969c10.304-7.777 23.649-9.881 36.218-8.562 35.606 5.447 63.905 28.631 89.825 52.16 4.889 4.377 9.895 8.619 14.894 12.87a544 544 0 0 1 4.942 4.29c19.589 17.078 41.902 30.692 65.25 41.969 3.297 1.594 6.47 3.271 9.562 5.242-1.723 3.447-5.631 3.786-9.131 4.971l-3.307 1.091-3.201 1.104c-16.309 5.436-16.309 5.436-23.345 2.463a106 106 0 0 1-3.766-2.067l-2.064-1.111A393 393 0 0 1 849 649a1262 1262 0 0 0-3.613-1.965c-20.018-11.085-38.025-25.175-56.028-39.203a2327 2327 0 0 0-10.294-7.938 2138 2138 0 0 1-8.12-6.265A1336 1336 0 0 0 761 586l-2.182-1.659C720.064 555 720.064 555 709 555l1.793.918c4.79 2.539 8.594 4.953 12.207 9.082l2.125 2.312c4.222 6.051 5.949 12.34 4.875 19.688-3.354 12.656-12.961 22.882-23.816 29.793-15.325 8.264-34.921 9.795-51.872 6.082-10.554-3.271-18.556-9.146-26.312-16.875l-1.934-1.863c-11.482-11.943-16.686-29.355-16.473-45.587.235-6.466 1.322-12.412 3.407-18.55l.809-2.531C620.764 517.933 636.929 503.22 655 494c56.404-25.99 137.273-11.76 190 17"/><path fill="#fff" d="M1076 571c3.236 3.512 6.171 7.155 9 11l1.441 1.793c3.822 5.393 3.397 11.947 2.559 18.207-4.547 14.975-19.832 29.309-33 37-4.909 2.454-11.786 1.567-16.945.246-6.579-2.445-6.579-2.445-8.328-5.387L1030 632c9.374-12.601 9.374-12.601 14.188-17.188 5.449-5.227 10.736-11.145 11.812-18.812-27.884-21.307-55.15-36.548-91.438-32.25-23.897 3.559-44.333 14.458-65.562 25.25a1909 1909 0 0 1-28.938 14.312l-3.197 1.565c-14.746 7.115-14.746 7.115-21.021 7.131-3.755-1.331-6.42-3.515-9.344-6.133l-1.721-1.502c-3.976-3.52-7.599-7.103-10.779-11.373v-2l2.075-.832c25.878-10.424 51.424-21.712 76.3-34.356C958.677 527.283 1027.685 525.817 1076 571M121 553c4.915.496 9.778 1.098 14.652 1.902l3.112.51q3.075.509 6.148 1.039c21.794 3.523 43.836 3.897 65.864 3.807q3.114-.012 6.226-.016c20.913-.044 41.728-.558 62.588-2.068C414.92 548.382 414.92 548.382 463 589a404 404 0 0 1 8.473 7.656c2.2 2.041 4.437 4.016 6.715 5.969 6.923 6.051 12.919 12.567 18.671 19.738a149 149 0 0 0 5.453 6.325c21.349 24.248 21.349 24.248 21.157 37.304-.629 2.694-1.529 4.028-3.469 6.008-2.613.252-2.613.252-5.757-.108l-3.537-.39a677 677 0 0 1-18.597-2.768l-4.318-.695q-5.81-.938-11.617-1.892-3.669-.601-7.339-1.199c-54.21-8.85-108.248-18.493-162.051-29.559a2795 2795 0 0 0-16.437-3.318c-139.719-27.863-139.719-27.863-167.597-68.883-2.84-4.411-2.84-4.411-2.422-8.012z"/><path fill="#fff" d="M1010.828 571.32c4.465 1.397 9.804 3.312 13.172 6.68-.259 5.805-1.69 8.456-5.707 12.574l-1.474 1.533A483 483 0 0 1 1012 597a2635 2635 0 0 0-3.306 3.381 1052 1052 0 0 1-8.62 8.675 2218 2218 0 0 0-5.31 5.317c-5.2 5.202-10.406 10.308-16.009 15.081-3.132 2.758-5.979 5.798-8.88 8.796-6.83 6.938-14.037 12.988-21.875 18.75l-2.746 2.02C910.655 683.794 866.891 692.681 825 694l-2.21.07c-28.645.77-56.677-3.092-84.79-8.07l-2.033-.358a869 869 0 0 1-12.28-2.267l-2.94-.55c-5.996-1.209-11.27-3.104-16.747-5.825 1-2 1-2 3.073-2.766 7.017-1.82 14.055-3.32 21.177-4.672 8.357-1.623 16.578-3.419 24.762-5.765 8.396-2.24 16.36-2.059 24.951-1.302 7.026.554 14.015.683 21.06.708l3.95.017q4.117.014 8.233.02 4.143.006 8.284.041c17.047.138 33.672-.39 50.51-3.28l3.657-.62a204 204 0 0 0 8.218-1.694l2.861-.643c23.19-5.409 41.251-15.527 58.686-31.712a101 101 0 0 1 5.211-4.41c2.121-1.722 3.761-3.387 5.492-5.485 7.056-8.217 14.73-15.524 23.203-22.262 2.596-2.114 5.037-4.329 7.484-6.613 18.014-16.235 18.014-16.235 26.016-15.242"/><path fill="#fff" d="M933.344 579.594c3.32 1.758 6.037 4.006 8.844 6.469l1.706 1.477q1.725 1.498 3.442 3.004a474 474 0 0 0 4.699 4.042l2.715 2.352 2.422 2.09c1.95 2.104 2.772 3.102 2.828 5.972-3.558 5.658-8.964 10.235-14.687 13.563-8.777 1.159-16.835-6.984-23.427-12.02q-1.946-1.5-3.887-3.003c-3.307-2.547-6.653-5.043-10-7.54 4.568-6.242 16.964-18.53 25.345-16.406M548 587c8.754-.133 14.063 2.919 21 8l2.801 2.043a675 675 0 0 1 7.498 5.666 498 498 0 0 0 5.56 4.146c7.598 5.617 14.968 11.395 22.125 17.563 2.82 2.415 5.686 4.755 8.578 7.082 6.037 4.931 11.789 10.135 17.438 15.5l1.815 1.712c18.133 17.211 29.117 34.397 36.185 58.413 2.988 10.143 6.287 18.946 12 27.875l1.1 1.729C692.483 749.7 703.17 762.277 716 771c-.516 1.855-.516 1.855-2 4a57 57 0 0 1-7.75 2.312l-2.133.549c-6.663 1.592-11.874.75-17.914-2.443-21.391-13.768-36.413-40.394-43.113-64.309-6.073-21.493-22.146-38.533-37.863-53.816-2.906-2.992-5.393-6.215-7.852-9.578C596 646 596 646 594 645l1 3c.191 1.967.379 3.934.545 5.903.74 8.484 2.35 15.83 5.432 23.765 1.131 3.684 1.418 6.501 1.023 10.332-1.133 1.914-1.133 1.914-3 3-2.742.398-2.742.398-5.875.375l-3.117.023c-5.366-.71-8.531-3.487-11.821-7.679-3.881-5.621-5.853-11.254-6.812-17.969l-.365-2.329c-.754-5.008-1.279-10.017-1.723-15.06-1.738-19.697-7.402-40.932-20.072-56.619C548 590 548 590 548 587M789 613c3.111 2.071 5.918 4.442 8.75 6.875l2.324 1.934c3.115 2.622 5.653 4.781 7.926 8.191-26.106 28.633-77.784 39.456-114.707 41.254-17.526.581-33.087-2.88-46.605-14.692C635.937 646.394 635.937 646.394 634 640c5.72-.108 11.289.048 16.972.712 45.593 5.323 90.417-3.681 129.598-27.778 3.428-1.317 4.92-1.105 8.43.066M960.625 666.625c2.632.43 5.262.85 7.898 1.246l2.06.313c9.623 1.378 19.325 1.421 29.029 1.574l2.063.036q2.772.04 5.545.064C1010 670 1010 670 1012 671c-2.071 6.702-7.256 9.456-13 13-28.359 14.848-69.61 12.627-100 6l-1-3c7.435-3.864 15.116-7.136 22.813-10.437q2.95-1.268 5.897-2.54a689 689 0 0 1 3.865-1.647c2.854-1.214 5.617-2.48 8.346-3.957 7.695-4.113 13.29-3.385 21.704-1.794"/></svg>